# xmcd
#
# Track frame offsets:
#	150
#	8385
#	19239
#	27069
#	35142
#	51774
#	61170
#	68460
#	83445
#	95379
#	108447
#	118140
#	133638
#	149595
#	158640
#	167847
#
# Disc length: 2420 seconds
#
# Revision: 1
# Processed by: cddbd v1.4PL0 Copyright (c) Steve Scherf et al.
# Submitted via: EasyCDDAExtractor 6.0.0.1
#
DISCID=c5097210
DTITLE=Various Artist - Campanitas y Campanitas
DYEAR=1900
DGENRE=
TTITLE0=Huachito torito
TTITLE1=Bailad partorcitos
TTITLE2=A ñas doce de la noche
TTITLE3=Mundo feliz
TTITLE4=Ven a mi casa esta navidad
TTITLE5=Este ramito de flores
TTITLE6=La noche no llego
TTITLE7=Dindon dilin dindan
TTITLE8=Mensaje de los angeels
TTITLE9=Campana sobre campana
TTITLE10=Maria en la montaña
TTITLE11=Hogar clinica san juan de dios - Rin rin
TTITLE12=Noche de paz
TTITLE13=Festejo navideño
TTITLE14=Tan tan
TTITLE15=Rueda rueda
EXTD=
EXTT0=
EXTT1=
EXTT2=
EXTT3=
EXTT4=
EXTT5=
EXTT6=
EXTT7=
EXTT8=
EXTT9=
EXTT10=
EXTT11=
EXTT12=
EXTT13=
EXTT14=
EXTT15=
PLAYORDER=
